NotoSansDisplay-BoldItalic.ufo
<glyph name="Eth" format="2">
  <advance width="652"/>
  <unicode hex="00D0"/>
  <anchor x="270" y="0" name="bottom"/>
  <anchor x="411" y="714" name="top"/>
  <anchor x="370" y="357" name="center"/>
  <anchor x="728" y="714" name="topright"/>
  <outline>
    <contour>
      <point x="372" y="431" type="line"/>
      <point x="41" y="431" type="line"/>
      <point x="5" y="275" type="line"/>
      <point x="336" y="275" type="line"/>
    </contour>
    <component base="D"/>
  </outline>
</glyph>
<glyph name="uni0191" format="2">
  <advance width="719"/>
  <unicode hex="0191"/>
  <anchor x="161" y="0" name="bottom"/>
  <anchor x="551" y="714" name="top"/>
  <anchor x="806" y="714" name="topright"/>
  <outline>
    <contour>
      <point x="179" y="-11" type="curve" smooth="yes"/>
      <point x="340" y="-11"/>
      <point x="408" y="69"/>
      <point x="431" y="182" type="curve" smooth="yes"/>
      <point x="453" y="292" type="line"/>
      <point x="633" y="292" type="line"/>
      <point x="668" y="448" type="line"/>
      <point x="490" y="448" type="line"/>
      <point x="510" y="559" type="line"/>
      <point x="705" y="559" type="line"/>
      <point x="739" y="714" type="line"/>
      <point x="353" y="714" type="line"/>
      <point x="245" y="191" type="line" smooth="yes"/>
      <point x="236" y="149"/>
      <point x="213" y="124"/>
      <point x="180" y="124" type="curve" smooth="yes"/>
      <point x="153" y="124"/>
      <point x="133" y="139"/>
      <point x="133" y="169" type="curve" smooth="yes"/>
      <point x="133" y="183"/>
      <point x="137" y="197"/>
      <point x="141" y="207" type="curve"/>
      <point x="-3" y="258" type="line"/>
      <point x="-15" y="234"/>
      <point x="-26" y="195"/>
      <point x="-26" y="160" type="curve" smooth="yes"/>
      <point x="-26" y="50"/>
      <point x="52" y="-11"/>
    </contour>
  </outline>
</glyph>
<glyph name="florin" format="2">
  <advance width="568"/>
  <unicode hex="0192"/>
  <anchor x="184" y="0" name="bottom"/>
  <anchor x="526" y="765" name="top"/>
  <anchor x="694" y="765" name="topright"/>
  <outline>
    <contour>
      <point x="199" y="-15" type="curve" smooth="yes"/>
      <point x="345" y="-15"/>
      <point x="411" y="65"/>
      <point x="435" y="178" type="curve" smooth="yes"/>
      <point x="484" y="411" type="line"/>
      <point x="580" y="411" type="line"/>
      <point x="614" y="553" type="line"/>
      <point x="517" y="553" type="line"/>
      <point x="525" y="588" type="line" smooth="yes"/>
      <point x="530" y="611"/>
      <point x="544" y="623"/>
      <point x="563" y="623" type="curve" smooth="yes"/>
      <point x="582" y="623"/>
      <point x="604" y="617"/>
      <point x="622" y="608" type="curve"/>
      <point x="671" y="737" type="line"/>
      <point x="639" y="754"/>
      <point x="586" y="765"/>
      <point x="535" y="765" type="curve" smooth="yes"/>
      <point x="428" y="765"/>
      <point x="364" y="712"/>
      <point x="336" y="587" type="curve" smooth="yes"/>
      <point x="328" y="551" type="line"/>
      <point x="240" y="504" type="line"/>
      <point x="218" y="411" type="line"/>
      <point x="295" y="411" type="line"/>
      <point x="249" y="187" type="line" smooth="yes"/>
      <point x="240" y="145"/>
      <point x="222" y="120"/>
      <point x="189" y="120" type="curve" smooth="yes"/>
      <point x="160" y="120"/>
      <point x="139" y="136"/>
      <point x="139" y="171" type="curve" smooth="yes"/>
      <point x="139" y="183"/>
      <point x="143" y="198"/>
      <point x="147" y="207" type="curve"/>
      <point x="3" y="258" type="line"/>
      <point x="-9" y="234"/>
      <point x="-20" y="195"/>
      <point x="-20" y="163" type="curve" smooth="yes"/>
      <point x="-20" y="49"/>
      <point x="58" y="-15"/>
    </contour>
  </outline>
</glyph>
<glyph name="uni023B" format="2">
  <advance width="603"/>
  <unicode hex="023B"/>
  <anchor x="297" y="-75" name="bottom"/>
  <anchor x="425" y="760" name="top"/>
  <anchor x="679" y="714" name="topright"/>
  <outline>
    <contour>
      <point x="149" y="-75" type="line"/>
      <point x="243" y="-75" type="line"/>
      <point x="633" y="760" type="line"/>
      <point x="540" y="760" type="line"/>
    </contour>
    <component base="C"/>
  </outline>
</glyph>
<glyph name="uni0246" format="2">
  <advance width="539"/>
  <unicode hex="0246"/>
  <anchor x="225" y="-75" name="bottom"/>
  <anchor x="386" y="760" name="top"/>
  <anchor x="615" y="714" name="topright"/>
  <outline>
    <contour>
      <point x="132" y="-75" type="line"/>
      <point x="231" y="-75" type="line"/>
      <point x="593" y="760" type="line"/>
      <point x="496" y="760" type="line"/>
    </contour>
    <component base="E"/>
  </outline>
</glyph>
<glyph name="uni0262" format="2">
  <advance width="577"/>
  <unicode hex="0262"/>
  <anchor x="232" y="0" name="bottom"/>
  <anchor x="351" y="553" name="top"/>
  <anchor x="559" y="553" name="topright"/>
  <outline>
    <contour>
      <point x="275" y="-6" type="curve" smooth="yes"/>
      <point x="346" y="-6"/>
      <point x="400" y="6"/>
      <point x="454" y="25" type="curve"/>
      <point x="519" y="326" type="line"/>
      <point x="273" y="326" type="line"/>
      <point x="247" y="217" type="line"/>
      <point x="344" y="217" type="line"/>
      <point x="328" y="131" type="line"/>
      <point x="320" y="128"/>
      <point x="312" y="125"/>
      <point x="299" y="125" type="curve" smooth="yes"/>
      <point x="226" y="125"/>
      <point x="186" y="165"/>
      <point x="186" y="237" type="curve" smooth="yes"/>
      <point x="186" y="314"/>
      <point x="221" y="431"/>
      <point x="338" y="431" type="curve" smooth="yes"/>
      <point x="392" y="431"/>
      <point x="447" y="414"/>
      <point x="479" y="396" type="curve"/>
      <point x="533" y="522" type="line"/>
      <point x="499" y="541"/>
      <point x="417" y="564"/>
      <point x="342" y="564" type="curve" smooth="yes"/>
      <point x="109" y="564"/>
      <point x="35" y="372"/>
      <point x="35" y="228" type="curve" smooth="yes"/>
      <point x="35" y="83"/>
      <point x="135" y="-6"/>
    </contour>
  </outline>
</glyph>
<glyph name="uni0280" format="2">
  <advance width="544"/>
  <unicode hex="0280"/>
  <anchor x="216" y="0" name="bottom"/>
  <anchor x="334" y="553" name="top"/>
  <outline>
    <contour>
      <point x="19" y="0" type="line"/>
      <point x="170" y="0" type="line"/>
      <point x="212" y="197" type="line"/>
      <point x="263" y="197" type="line"/>
      <point x="331" y="0" type="line"/>
      <point x="494" y="0" type="line"/>
      <point x="398" y="226" type="line"/>
      <point x="475" y="249"/>
      <point x="525" y="303"/>
      <point x="525" y="391" type="curve" smooth="yes"/>
      <point x="525" y="494"/>
      <point x="462" y="553"/>
      <point x="307" y="553" type="curve" smooth="yes"/>
      <point x="136" y="553" type="line"/>
    </contour>
    <contour>
      <point x="241" y="325" type="line"/>
      <point x="261" y="425" type="line"/>
      <point x="318" y="425" type="line" smooth="yes"/>
      <point x="358" y="425"/>
      <point x="374" y="408"/>
      <point x="374" y="381" type="curve" smooth="yes"/>
      <point x="374" y="336"/>
      <point x="342" y="325"/>
      <point x="297" y="325" type="curve" smooth="yes"/>
    </contour>
  </outline>
</glyph>
<glyph name="doublemacroncomb" format="2">
  <unicode hex="035E"/>
  <anchor x="249" y="553" name="_top"/>
  <anchor x="274" y="721" name="top"/>
  <outline>
    <contour>
      <point x="-7" y="606" type="line"/>
      <point x="526" y="606" type="line"/>
      <point x="551" y="721" type="line"/>
      <point x="17" y="721" type="line"/>
    </contour>
  </outline>
</glyph>
<glyph name="tildedoublecomb" format="2">
  <unicode hex="0360"/>
  <anchor x="318" y="553" name="_top"/>
  <anchor x="351" y="774" name="top"/>
  <outline>
    <contour>
      <point x="-51" y="607" type="curve"/>
      <point x="37" y="607" type="line"/>
      <point x="58" y="642"/>
      <point x="99" y="658"/>
      <point x="121" y="658" type="curve" smooth="yes"/>
      <point x="261" y="658"/>
      <point x="378" y="608"/>
      <point x="537" y="608" type="curve" smooth="yes"/>
      <point x="623" y="608"/>
      <point x="717" y="663"/>
      <point x="747" y="774" type="curve"/>
      <point x="659" y="774" type="line"/>
      <point x="638" y="740"/>
      <point x="599" y="724"/>
      <point x="577" y="724" type="curve" smooth="yes"/>
      <point x="429" y="724"/>
      <point x="328" y="774"/>
      <point x="156" y="774" type="curve" smooth="yes"/>
      <point x="76" y="774"/>
      <point x="-14" y="721"/>
    </contour>
  </outline>
</glyph>
<glyph name="arrowdoublerightbelowcomb" format="2">
  <unicode hex="0362"/>
  <anchor x="227" y="39" name="_bottom"/>
  <anchor x="168" y="-242" name="bottom"/>
  <outline>
    <contour>
      <point x="423" y="-242" type="line"/>
      <point x="577" y="-127" type="line"/>
      <point x="426" y="-11" type="line"/>
      <point x="425" y="-87" type="line"/>
      <point x="-173" y="-87" type="line"/>
      <point x="-192" y="-167" type="line"/>
      <point x="424" y="-167" type="line"/>
    </contour>
  </outline>
</glyph>
<glyph name="Gamma" format="2">
  <advance width="506"/>
  <unicode hex="0393"/>
  <anchor x="197" y="0" name="bottom"/>
  <anchor x="369" y="714" name="top"/>
  <outline>
    <contour>
      <point x="13" y="0" type="line"/>
      <point x="204" y="0" type="line"/>
      <point x="321" y="558" type="line"/>
      <point x="535" y="558" type="line"/>
      <point x="569" y="714" type="line"/>
      <point x="164" y="714" type="line"/>
    </contour>
  </outline>
</glyph>
<glyph name="uni0463" format="2">
  <advance width="610"/>
  <unicode hex="0463"/>
  <anchor x="248" y="0" name="bottom"/>
  <anchor x="385" y="644" name="top"/>
  <outline>
    <contour>
      <point x="299" y="-10" type="curve" smooth="yes"/>
      <point x="475" y="-10"/>
      <point x="568" y="63"/>
      <point x="568" y="198" type="curve" smooth="yes"/>
      <point x="568" y="280"/>
      <point x="507" y="352"/>
      <point x="382" y="352" type="curve" smooth="yes"/>
      <point x="359" y="352"/>
      <point x="332" y="349"/>
      <point x="310" y="342" type="curve"/>
      <point x="324" y="415" type="line"/>
      <point x="457" y="415" type="line"/>
      <point x="486" y="553" type="line"/>
      <point x="356" y="553" type="line"/>
      <point x="376" y="644" type="line"/>
      <point x="187" y="644" type="line"/>
      <point x="168" y="553" type="line"/>
      <point x="56" y="553" type="line"/>
      <point x="26" y="415" type="line"/>
      <point x="136" y="415" type="line"/>
      <point x="100" y="244" type="line" smooth="yes"/>
      <point x="92" y="208"/>
      <point x="87" y="173"/>
      <point x="87" y="144" type="curve" smooth="yes"/>
      <point x="87" y="65"/>
      <point x="136" y="-10"/>
    </contour>
    <contour>
      <point x="324" y="118" type="curve" smooth="yes"/>
      <point x="299" y="118"/>
      <point x="271" y="128"/>
      <point x="271" y="154" type="curve" smooth="yes"/>
      <point x="271" y="167"/>
      <point x="276" y="191"/>
      <point x="282" y="216" type="curve"/>
      <point x="297" y="222"/>
      <point x="317" y="224"/>
      <point x="333" y="224" type="curve" smooth="yes"/>
      <point x="362" y="224"/>
      <point x="376" y="199"/>
      <point x="376" y="173" type="curve" smooth="yes"/>
      <point x="376" y="137"/>
      <point x="352" y="118"/>
    </contour>
  </outline>
</glyph>
<glyph name="uni0489" format="2">
  <advance width="903"/>
  <unicode hex="0489"/>
  <outline>
    <contour>
      <point x="672" y="435" type="line"/>
      <point x="709" y="464"/>
      <point x="764" y="502"/>
      <point x="810" y="532" type="curve"/>
      <point x="747" y="593" type="line"/>
      <point x="696" y="573"/>
      <point x="638" y="546"/>
      <point x="595" y="520" type="curve"/>
      <point x="594" y="511" type="line"/>
    </contour>
    <contour>
      <point x="148" y="-74" type="line"/>
      <point x="198" y="-54"/>
      <point x="258" y="-26"/>
      <point x="299" y="0" type="curve"/>
      <point x="302" y="8" type="line"/>
      <point x="223" y="85" type="line"/>
      <point x="186" y="56"/>
      <point x="131" y="17"/>
      <point x="85" y="-12" type="curve"/>
    </contour>
    <contour>
      <point x="167" y="196" type="curve"/>
      <point x="174" y="201" type="line"/>
      <point x="175" y="309" type="line"/>
      <point x="129" y="316"/>
      <point x="65" y="330"/>
      <point x="13" y="343" type="curve"/>
      <point x="12" y="256" type="line"/>
      <point x="60" y="233"/>
      <point x="120" y="209"/>
    </contour>
    <contour>
      <point x="368" y="-188" type="curve"/>
      <point x="460" y="-188" type="line"/>
      <point x="483" y="-137"/>
      <point x="506" y="-74"/>
      <point x="519" y="-24" type="curve"/>
      <point x="514" y="-17" type="line"/>
      <point x="403" y="-17" type="line"/>
      <point x="395" y="-65"/>
      <point x="381" y="-133"/>
    </contour>
    <contour>
      <point x="698" y="-116" type="curve"/>
      <point x="763" y="-55" type="line"/>
      <point x="745" y="-2"/>
      <point x="720" y="59"/>
      <point x="696" y="104" type="curve"/>
      <point x="687" y="105" type="line"/>
      <point x="608" y="29" type="line"/>
      <point x="635" y="-10"/>
      <point x="670" y="-68"/>
    </contour>
    <contour>
      <point x="206" y="414" type="line"/>
      <point x="287" y="491" type="line"/>
      <point x="260" y="529"/>
      <point x="223" y="587"/>
      <point x="196" y="635" type="curve"/>
      <point x="130" y="574" type="line"/>
      <point x="148" y="522"/>
      <point x="174" y="460"/>
      <point x="199" y="416" type="curve"/>
    </contour>
    <contour>
      <point x="882" y="196" type="curve"/>
      <point x="882" y="283" type="line"/>
      <point x="834" y="306"/>
      <point x="775" y="330"/>
      <point x="727" y="343" type="curve"/>
      <point x="721" y="338" type="line"/>
      <point x="719" y="230" type="line"/>
      <point x="765" y="223"/>
      <point x="829" y="209"/>
    </contour>
    <contour>
      <point x="381" y="557" type="line"/>
      <point x="493" y="557" type="line"/>
      <point x="500" y="605"/>
      <point x="514" y="673"/>
      <point x="527" y="728" type="curve"/>
      <point x="435" y="728" type="line"/>
      <point x="413" y="677"/>
      <point x="389" y="614"/>
      <point x="376" y="564" type="curve"/>
    </contour>
  </outline>
</glyph>
<glyph name="uni1D00" format="2">
  <advance width="558"/>
  <unicode hex="1D00"/>
  <anchor x="223" y="0" name="bottom"/>
  <anchor x="342" y="553" name="top"/>
  <outline>
    <contour>
      <point x="-58" y="0" type="line"/>
      <point x="106" y="0" type="line"/>
      <point x="154" y="96" type="line"/>
      <point x="338" y="96" type="line"/>
      <point x="342" y="0" type="line"/>
      <point x="495" y="0" type="line"/>
      <point x="438" y="553" type="line"/>
      <point x="236" y="553" type="line"/>
    </contour>
    <contour>
      <point x="213" y="226" type="line"/>
      <point x="301" y="408" type="line" smooth="yes"/>
      <point x="310" y="427"/>
      <point x="315" y="442"/>
      <point x="319" y="455" type="curve"/>
      <point x="320" y="455" type="line"/>
      <point x="320" y="434"/>
      <point x="321" y="411"/>
      <point x="322" y="389" type="curve" smooth="yes"/>
      <point x="332" y="226" type="line"/>
    </contour>
  </outline>
</glyph>
<glyph name="uni1D04" format="2">
  <advance width="530"/>
  <unicode hex="1D04"/>
  <anchor x="209" y="0" name="bottom"/>
  <anchor x="328" y="553" name="top"/>
  <outline>
    <contour>
      <point x="260" y="-6" type="curve" smooth="yes"/>
      <point x="340" y="-6"/>
      <point x="409" y="18"/>
      <point x="434" y="28" type="curve"/>
      <point x="434" y="161" type="line"/>
      <point x="386" y="140"/>
      <point x="338" y="125"/>
      <point x="294" y="125" type="curve" smooth="yes"/>
      <point x="220" y="125"/>
      <point x="196" y="152"/>
      <point x="196" y="227" type="curve" smooth="yes"/>
      <point x="196" y="308"/>
      <point x="238" y="433"/>
      <point x="345" y="433" type="curve" smooth="yes"/>
      <point x="396" y="433"/>
      <point x="436" y="414"/>
      <point x="480" y="388" type="curve"/>
      <point x="540" y="517" type="line"/>
      <point x="481" y="547"/>
      <point x="432" y="564"/>
      <point x="345" y="564" type="curve" smooth="yes"/>
      <point x="126" y="564"/>
      <point x="36" y="376"/>
      <point x="36" y="218" type="curve" smooth="yes"/>
      <point x="36" y="83"/>
      <point x="107" y="-6"/>
    </contour>
  </outline>
</glyph>
<glyph name="uni1D05" format="2">
  <advance width="575"/>
  <unicode hex="1D05"/>
  <anchor x="231" y="0" name="bottom"/>
  <anchor x="349" y="553" name="top"/>
  <outline>
    <contour>
      <point x="12" y="0" type="line"/>
      <point x="221" y="0" type="line" smooth="yes"/>
      <point x="415" y="0"/>
      <point x="531" y="127"/>
      <point x="531" y="349" type="curve" smooth="yes"/>
      <point x="531" y="477"/>
      <point x="449" y="553"/>
      <point x="304" y="553" type="curve" smooth="yes"/>
      <point x="130" y="553" type="line"/>
    </contour>
    <contour>
      <point x="198" y="129" type="line"/>
      <point x="262" y="425" type="line"/>
      <point x="290" y="425" type="line" smooth="yes"/>
      <point x="339" y="425"/>
      <point x="368" y="394"/>
      <point x="368" y="337" type="curve" smooth="yes"/>
      <point x="368" y="237"/>
      <point x="327" y="129"/>
      <point x="226" y="129" type="curve" smooth="yes"/>
    </contour>
  </outline>
</glyph>
<glyph name="uni1D07" format="2">
  <advance width="485"/>
  <unicode hex="1D07"/>
  <anchor x="186" y="0" name="bottom"/>
  <anchor x="305" y="553" name="top"/>
  <outline>
    <contour>
      <point x="12" y="0" type="line"/>
      <point x="364" y="0" type="line"/>
      <point x="389" y="128" type="line"/>
      <point x="198" y="128" type="line"/>
      <point x="218" y="223" type="line"/>
      <point x="396" y="223" type="line"/>
      <point x="425" y="350" type="line"/>
      <point x="247" y="350" type="line"/>
      <point x="263" y="426" type="line"/>
      <point x="456" y="426" type="line"/>
      <point x="481" y="553" type="line"/>
      <point x="130" y="553" type="line"/>
    </contour>
  </outline>
</glyph>
<glyph name="uni1D0B" format="2">
  <advance width="549"/>
  <unicode hex="1D0B"/>
  <anchor x="218" y="0" name="bottom"/>
  <anchor x="336" y="553" name="top"/>
  <outline>
    <contour>
      <point x="12" y="0" type="line"/>
      <point x="171" y="0" type="line"/>
      <point x="206" y="177" type="line"/>
      <point x="243" y="185" type="line"/>
      <point x="311" y="0" type="line"/>
      <point x="488" y="0" type="line"/>
      <point x="382" y="269" type="line"/>
      <point x="607" y="553" type="line"/>
      <point x="420" y="553" type="line"/>
      <point x="274" y="353" type="line" smooth="yes"/>
      <point x="263" y="338"/>
      <point x="243" y="310"/>
      <point x="229" y="287" type="curve"/>
      <point x="288" y="553" type="line"/>
      <point x="129" y="553" type="line"/>
    </contour>
  </outline>
</glyph>
<glyph name="uni1D0D" format="2">
  <advance width="770"/>
  <unicode hex="1D0D"/>
  <anchor x="329" y="0" name="bottom"/>
  <anchor x="447" y="553" name="top"/>
  <outline>
    <contour>
      <point x="12" y="0" type="line"/>
      <point x="150" y="0" type="line"/>
      <point x="190" y="190" type="line" smooth="yes"/>
      <point x="205" y="263"/>
      <point x="220" y="344"/>
      <point x="224" y="378" type="curve"/>
      <point x="228" y="378" type="line"/>
      <point x="231" y="0" type="line"/>
      <point x="383" y="0" type="line"/>
      <point x="567" y="378" type="line"/>
      <point x="572" y="378" type="line"/>
      <point x="556" y="321"/>
      <point x="535" y="240"/>
      <point x="527" y="202" type="curve" smooth="yes"/>
      <point x="485" y="0" type="line"/>
      <point x="629" y="0" type="line"/>
      <point x="747" y="553" type="line"/>
      <point x="535" y="553" type="line"/>
      <point x="350" y="173" type="line"/>
      <point x="346" y="173" type="line"/>
      <point x="341" y="553" type="line"/>
      <point x="129" y="553" type="line"/>
    </contour>
  </outline>
</glyph>
<glyph name="uni1D18" format="2">
  <advance width="569"/>
  <unicode hex="1D18"/>
  <anchor x="228" y="0" name="bottom"/>
  <anchor x="347" y="553" name="top"/>
  <outline>
    <contour>
      <point x="12" y="0" type="line"/>
      <point x="171" y="0" type="line"/>
      <point x="209" y="179" type="line"/>
      <point x="282" y="179" type="line" smooth="yes"/>
      <point x="410" y="179"/>
      <point x="534" y="238"/>
      <point x="534" y="383" type="curve" smooth="yes"/>
      <point x="534" y="481"/>
      <point x="477" y="553"/>
      <point x="321" y="553" type="curve" smooth="yes"/>
      <point x="130" y="553" type="line"/>
    </contour>
    <contour>
      <point x="236" y="310" type="line"/>
      <point x="262" y="425" type="line"/>
      <point x="320" y="425" type="line" smooth="yes"/>
      <point x="356" y="425"/>
      <point x="376" y="405"/>
      <point x="376" y="378" type="curve" smooth="yes"/>
      <point x="376" y="329"/>
      <point x="335" y="310"/>
      <point x="290" y="310" type="curve" smooth="yes"/>
    </contour>
  </outline>
</glyph>
<glyph name="uni1D1B" format="2">
  <advance width="457"/>
  <unicode hex="1D1B"/>
  <anchor x="173" y="0" name="bottom"/>
  <anchor x="291" y="553" name="top"/>
  <outline>
    <contour>
      <point x="83" y="0" type="line"/>
      <point x="241" y="0" type="line"/>
      <point x="331" y="424" type="line"/>
      <point x="454" y="424" type="line"/>
      <point x="481" y="553" type="line"/>
      <point x="77" y="553" type="line"/>
      <point x="49" y="424" type="line"/>
      <point x="172" y="424" type="line"/>
    </contour>
  </outline>
</glyph>
<glyph name="uni1D1C" format="2">
  <advance width="580"/>
  <unicode hex="1D1C"/>
  <anchor x="234" y="0" name="bottom"/>
  <anchor x="352" y="553" name="top"/>
  <outline>
    <contour>
      <point x="221" y="-7" type="curve" smooth="yes"/>
      <point x="375" y="-7"/>
      <point x="456" y="86"/>
      <point x="481" y="201" type="curve" smooth="yes"/>
      <point x="557" y="553" type="line"/>
      <point x="405" y="553" type="line"/>
      <point x="333" y="217" type="line" smooth="yes"/>
      <point x="320" y="154"/>
      <point x="287" y="124"/>
      <point x="245" y="124" type="curve" smooth="yes"/>
      <point x="221" y="124"/>
      <point x="201" y="141"/>
      <point x="201" y="175" type="curve" smooth="yes"/>
      <point x="201" y="190"/>
      <point x="206" y="211"/>
      <point x="208" y="222" type="curve" smooth="yes"/>
      <point x="279" y="553" type="line"/>
      <point x="128" y="553" type="line"/>
      <point x="59" y="235" type="line" smooth="yes"/>
      <point x="54" y="211"/>
      <point x="50" y="186"/>
      <point x="50" y="162" type="curve" smooth="yes"/>
      <point x="50" y="72"/>
      <point x="113" y="-7"/>
    </contour>
  </outline>
</glyph>
<glyph name="uni1D24" format="2">
  <advance width="553"/>
  <unicode hex="1D24"/>
  <anchor x="207" y="0" name="bottom"/>
  <anchor x="370" y="760" name="top"/>
  <outline>
    <contour>
      <point x="227" y="-7" type="curve" smooth="yes"/>
      <point x="306" y="-7"/>
      <point x="370" y="12"/>
      <point x="457" y="61" type="curve"/>
      <point x="402" y="199" type="line"/>
      <point x="340" y="164"/>
      <point x="303" y="150"/>
      <point x="268" y="150" type="curve" smooth="yes"/>
      <point x="234" y="150"/>
      <point x="213" y="168"/>
      <point x="213" y="196" type="curve" smooth="yes"/>
      <point x="213" y="247"/>
      <point x="274" y="288"/>
      <point x="379" y="314" type="curve"/>
      <point x="389" y="359" type="line"/>
      <point x="496" y="404"/>
      <point x="573" y="471"/>
      <point x="573" y="588" type="curve" smooth="yes"/>
      <point x="573" y="702"/>
      <point x="492" y="765"/>
      <point x="370" y="765" type="curve" smooth="yes"/>
      <point x="290" y="765"/>
      <point x="227" y="746"/>
      <point x="140" y="697" type="curve"/>
      <point x="194" y="559" type="line"/>
      <point x="257" y="594"/>
      <point x="294" y="608"/>
      <point x="329" y="608" type="curve" smooth="yes"/>
      <point x="363" y="608"/>
      <point x="384" y="590"/>
      <point x="384" y="562" type="curve" smooth="yes"/>
      <point x="384" y="513"/>
      <point x="325" y="470"/>
      <point x="218" y="444" type="curve"/>
      <point x="208" y="399" type="line"/>
      <point x="85" y="348"/>
      <point x="24" y="271"/>
      <point x="24" y="172" type="curve" smooth="yes"/>
      <point x="24" y="57"/>
      <point x="104" y="-7"/>
    </contour>
  </outline>
</glyph>
<glyph name="uni1D7A" format="2">
  <advance width="996"/>
  <unicode hex="1D7A"/>
  <anchor x="184" y="0" name="bottom_1"/>
  <anchor x="649" y="0" name="bottom_2"/>
  <anchor x="173" y="277" name="center_1"/>
  <anchor x="706" y="277" name="center_2"/>
  <anchor x="276" y="664" name="top_1"/>
  <anchor x="662" y="760" name="top_2"/>
  <anchor x="508" y="664" name="topright_1"/>
  <anchor x="1027" y="760" name="topright_2"/>
  <outline>
    <contour>
      <point x="-3" y="-75" type="line"/>
      <point x="148" y="-75" type="line"/>
      <point x="973" y="760" type="line"/>
      <point x="821" y="760" type="line"/>
    </contour>
    <component base="t"/>
    <component base="h" xOffset="401"/>
  </outline>
</glyph>
<glyph name="LL-middleWelsh" format="2">
  <advance width="830"/>
  <unicode hex="1EFA"/>
  <anchor x="530" y="0" name="bottom"/>
  <anchor x="583" y="714" name="top"/>
  <anchor x="506" y="357" name="center"/>
  <anchor x="783" y="714" name="topright"/>
  <outline>
    <contour>
      <point x="16" y="0" type="line"/>
      <point x="207" y="0" type="line"/>
      <point x="358" y="714" type="line"/>
      <point x="167" y="714" type="line"/>
    </contour>
    <component base="L" xOffset="327"/>
  </outline>
</glyph>
<glyph name="ll-middleWelsh" format="2">
  <advance width="650"/>
  <unicode hex="1EFB"/>
  <anchor x="429" y="0" name="bottom"/>
  <anchor x="592" y="760" name="top"/>
  <anchor x="483" y="277" name="center_1"/>
  <anchor x="158" y="277" name="center_2"/>
  <anchor x="723" y="760" name="topright_1"/>
  <anchor x="398" y="760" name="topright_2"/>
  <outline>
    <contour>
      <point x="49" y="570" type="line"/>
      <point x="726" y="570" type="line"/>
      <point x="752" y="688" type="line"/>
      <point x="74" y="688" type="line"/>
    </contour>
    <component base="l" xOffset="325"/>
    <component base="l"/>
  </outline>
</glyph>
<glyph name="uni1FFD" format="2">
  <advance width="575"/>
  <unicode hex="1FFD"/>
  <anchor x="322" y="553" name="_top"/>
  <anchor x="393" y="766" name="top"/>
  <outline>
    <contour>
      <point x="283" y="606" type="line"/>
      <point x="376" y="606" type="line"/>
      <point x="416" y="649"/>
      <point x="466" y="707"/>
      <point x="496" y="752" type="curve"/>
      <point x="497" y="766" type="line"/>
      <point x="345" y="766" type="line"/>
      <point x="329" y="723"/>
      <point x="304" y="660"/>
      <point x="283" y="619" type="curve"/>
    </contour>
  </outline>
</glyph>
<glyph name="plussuperior" format="2">
  <advance width="388"/>
  <unicode hex="207A"/>
  <outline>
    <contour>
      <point x="191" y="293" type="line"/>
      <point x="275" y="293" type="line"/>
      <point x="275" y="406" type="line"/>
      <point x="392" y="406" type="line"/>
      <point x="392" y="490" type="line"/>
      <point x="275" y="490" type="line"/>
      <point x="275" y="604" type="line"/>
      <point x="191" y="604" type="line"/>
      <point x="191" y="490" type="line"/>
      <point x="75" y="490" type="line"/>
      <point x="75" y="406" type="line"/>
      <point x="191" y="406" type="line"/>
    </contour>
  </outline>
</glyph>
<glyph name="parenleftsuperior" format="2">
  <advance width="278"/>
  <unicode hex="207D"/>
  <outline>
    <contour>
      <point x="134" y="214" type="curve"/>
      <point x="236" y="214" type="line"/>
      <point x="209" y="275"/>
      <point x="193" y="343"/>
      <point x="193" y="403" type="curve" smooth="yes"/>
      <point x="193" y="557"/>
      <point x="261" y="675"/>
      <point x="355" y="772" type="curve"/>
      <point x="245" y="772" type="line"/>
      <point x="137" y="666"/>
      <point x="82" y="551"/>
      <point x="82" y="410" type="curve" smooth="yes"/>
      <point x="82" y="340"/>
      <point x="98" y="273"/>
    </contour>
  </outline>
</glyph>
<glyph name="uni20A9" format="2">
  <advance width="736"/>
  <unicode hex="20A9"/>
  <outline>
    <contour>
      <point x="52" y="0" type="line"/>
      <point x="243" y="0" type="line"/>
      <point x="334" y="247" type="line"/>
      <point x="405" y="247" type="line"/>
      <point x="391" y="0" type="line"/>
      <point x="567" y="0" type="line"/>
      <point x="657" y="247" type="line"/>
      <point x="734" y="247" type="line"/>
      <point x="751" y="328" type="line"/>
      <point x="686" y="328" type="line"/>
      <point x="708" y="386" type="line"/>
      <point x="764" y="386" type="line"/>
      <point x="781" y="467" type="line"/>
      <point x="737" y="467" type="line"/>
      <point x="826" y="714" type="line"/>
      <point x="670" y="714" type="line"/>
      <point x="598" y="467" type="line"/>
      <point x="527" y="467" type="line"/>
      <point x="544" y="714" type="line"/>
      <point x="383" y="714" type="line"/>
      <point x="292" y="467" type="line"/>
      <point x="227" y="467" type="line"/>
      <point x="263" y="714" type="line"/>
      <point x="106" y="714" type="line"/>
      <point x="88" y="467" type="line"/>
      <point x="48" y="467" type="line"/>
      <point x="31" y="386" type="line"/>
      <point x="82" y="386" type="line"/>
      <point x="77" y="328" type="line"/>
      <point x="18" y="328" type="line"/>
      <point x="1" y="247" type="line"/>
      <point x="72" y="247" type="line"/>
    </contour>
    <contour>
      <point x="182" y="144" type="line"/>
      <point x="197" y="247" type="line"/>
      <point x="216" y="247" type="line"/>
    </contour>
    <contour>
      <point x="208" y="328" type="line"/>
      <point x="218" y="386" type="line"/>
      <point x="263" y="386" type="line"/>
      <point x="243" y="328" type="line"/>
    </contour>
    <contour>
      <point x="504" y="146" type="line"/>
      <point x="513" y="247" type="line"/>
      <point x="530" y="247" type="line"/>
    </contour>
    <contour>
      <point x="361" y="328" type="line"/>
      <point x="379" y="386" type="line"/>
      <point x="413" y="386" type="line"/>
      <point x="407" y="328" type="line"/>
    </contour>
    <contour>
      <point x="519" y="328" type="line"/>
      <point x="525" y="386" type="line"/>
      <point x="573" y="386" type="line"/>
      <point x="555" y="328" type="line"/>
    </contour>
    <contour>
      <point x="405" y="467" type="line"/>
      <point x="436" y="570" type="line"/>
      <point x="422" y="467" type="line"/>
    </contour>
  </outline>
</glyph>
<glyph name="uni20B0" format="2">
  <advance width="638"/>
  <unicode hex="20B0"/>
  <outline>
    <contour>
      <point x="303" y="-240" type="curve"/>
      <point x="462" y="-240"/>
      <point x="535" y="-143"/>
      <point x="537" y="20" type="curve"/>
      <point x="538" y="111"/>
      <point x="502" y="195"/>
      <point x="506" y="241" type="curve" smooth="yes"/>
      <point x="514" y="345"/>
      <point x="643" y="416"/>
      <point x="644" y="545" type="curve"/>
      <point x="645" y="637"/>
      <point x="604" y="725"/>
      <point x="469" y="725" type="curve"/>
      <point x="319" y="725"/>
      <point x="253" y="621"/>
      <point x="251" y="465" type="curve"/>
      <point x="250" y="395"/>
      <point x="289" y="314"/>
      <point x="267" y="268" type="curve" smooth="yes"/>
      <point x="258" y="238" type="line" smooth="yes"/>
      <point x="272" y="256" type="line" smooth="yes"/>
      <point x="41" y="-74" type="line" smooth="yes"/>
      <point x="97" y="5" type="line" smooth="yes"/>
      <point x="136" y="28" type="line" smooth="yes"/>
      <point x="191" y="55" type="line" smooth="yes"/>
      <point x="345" y="105" type="line" smooth="yes"/>
      <point x="350" y="106"/>
      <point x="370" y="39"/>
      <point x="369" y="-4" type="curve"/>
      <point x="369" y="-62"/>
      <point x="337" y="-105"/>
      <point x="282" y="-105" type="curve"/>
      <point x="258" y="-105"/>
      <point x="235" y="-101"/>
      <point x="235" y="-94" type="curve" smooth="yes"/>
      <point x="235" y="-230" type="line" smooth="yes"/>
      <point x="235" y="-237"/>
      <point x="271" y="-240"/>
    </contour>
    <contour>
      <point x="417" y="401" type="curve" smooth="yes"/>
      <point x="420" y="404"/>
      <point x="413" y="445"/>
      <point x="413" y="476" type="curve"/>
      <point x="414" y="532"/>
      <point x="428" y="582"/>
      <point x="469" y="582" type="curve"/>
      <point x="489" y="582"/>
      <point x="501" y="563"/>
      <point x="500" y="536" type="curve"/>
      <point x="500" y="482"/>
      <point x="461" y="431"/>
    </contour>
  </outline>
</glyph>
<glyph name="versicle" format="2">
  <advance width="592"/>
  <unicode hex="2123"/>
  <anchor x="215" y="0" name="bottom"/>
  <anchor x="362" y="714" name="top"/>
  <anchor x="669" y="714" name="topright"/>
  <outline>
    <contour>
      <point x="26" y="-146" type="line"/>
      <point x="95" y="-146" type="line"/>
      <point x="450" y="786" type="line"/>
      <point x="173" y="879" type="line"/>
      <point x="149" y="812" type="line"/>
      <point x="365" y="744" type="line"/>
    </contour>
    <component base="V"/>
  </outline>
</glyph>
<glyph name="uni2DF5" format="2">
  <unicode hex="2DF5"/>
  <anchor x="59" y="553" name="_top"/>
  <anchor x="120" y="841" name="top"/>
  <anchor x="348" y="841" name="topright"/>
  <outline>
    <contour>
      <point x="-16" y="616" type="curve" smooth="yes"/>
      <point x="18" y="616"/>
      <point x="41" y="622"/>
      <point x="64" y="634" type="curve"/>
      <point x="65" y="694" type="line"/>
      <point x="44" y="683"/>
      <point x="25" y="677"/>
      <point x="5" y="677" type="curve" smooth="yes"/>
      <point x="-9" y="677"/>
      <point x="-18" y="685"/>
      <point x="-18" y="710" type="curve" smooth="yes"/>
      <point x="-18" y="739"/>
      <point x="-3" y="786"/>
      <point x="40" y="786" type="curve" smooth="yes"/>
      <point x="155" y="786" type="line"/>
      <point x="117" y="620" type="line"/>
      <point x="198" y="620" type="line"/>
      <point x="237" y="786" type="line"/>
      <point x="305" y="786" type="line"/>
      <point x="319" y="840" type="line"/>
      <point x="35" y="840" type="line" smooth="yes"/>
      <point x="-52" y="840"/>
      <point x="-104" y="781"/>
      <point x="-104" y="705" type="curve" smooth="yes"/>
      <point x="-104" y="642"/>
      <point x="-64" y="616"/>
    </contour>
  </outline>
</glyph>
<glyph name="uniA650" format="2">
  <advance width="1009"/>
  <unicode hex="A650"/>
  <anchor x="499" y="0" name="bottom"/>
  <anchor x="636" y="714" name="top"/>
  <outline>
    <contour>
      <point x="232" y="556" type="line"/>
      <point x="455" y="714" type="line"/>
      <point x="111" y="714" type="line"/>
      <point x="77" y="556" type="line"/>
    </contour>
    <component base="afii10045" xOffset="99"/>
  </outline>
</glyph>
<glyph name="uniA655" format="2">
  <advance width="875"/>
  <unicode hex="A655"/>
  <anchor x="232" y="0" name="bottom"/>
  <anchor x="291" y="277" name="center"/>
  <anchor x="350" y="553" name="top"/>
  <anchor x="621" y="553" name="topright"/>
  <outline>
    <contour>
      <point x="532" y="353" type="line"/>
      <point x="502" y="215" type="line"/>
      <point x="611" y="215" type="line"/>
      <point x="566" y="0" type="line"/>
      <point x="755" y="0" type="line"/>
      <point x="872" y="553" type="line"/>
      <point x="683" y="553" type="line"/>
      <point x="640" y="353" type="line"/>
    </contour>
    <component base="o"/>
  </outline>
</glyph>
<glyph name="uniA664" format="2">
  <advance width="848"/>
  <unicode hex="A664"/>
  <anchor x="283" y="0" name="bottom"/>
  <anchor x="457" y="714" name="top"/>
  <outline>
    <contour>
      <point x="647" y="558" type="line"/>
      <point x="877" y="558" type="line"/>
      <point x="910" y="714" type="line"/>
      <point x="489" y="714" type="line"/>
    </contour>
    <component base="afii10029"/>
  </outline>
</glyph>
<glyph name="uniA671" format="2">
  <unicode hex="A671"/>
  <outline>
    <contour>
      <point x="-227" y="585" type="line"/>
      <point x="-113" y="585" type="line"/>
      <point x="-96" y="676" type="line"/>
      <point x="323" y="676" type="line"/>
      <point x="306" y="585" type="line"/>
      <point x="419" y="585" type="line"/>
      <point x="471" y="828" type="line"/>
      <point x="-174" y="828" type="line"/>
    </contour>
    <contour>
      <point x="-416" y="-305" type="line"/>
      <point x="229" y="-305" type="line"/>
      <point x="281" y="-62" type="line"/>
      <point x="168" y="-62" type="line"/>
      <point x="150" y="-153" type="line"/>
      <point x="-270" y="-153" type="line"/>
      <point x="-251" y="-62" type="line"/>
      <point x="-365" y="-62" type="line"/>
    </contour>
  </outline>
</glyph>
<glyph name="uniA672" format="2">
  <unicode hex="A672"/>
  <outline>
    <contour>
      <point x="29" y="581" type="line"/>
      <point x="113" y="581" type="line"/>
      <point x="137" y="699" type="line"/>
      <point x="237" y="699" type="line"/>
      <point x="256" y="785" type="line"/>
      <point x="156" y="785" type="line"/>
      <point x="180" y="905" type="line"/>
      <point x="97" y="905" type="line"/>
      <point x="72" y="785" type="line"/>
      <point x="-27" y="785" type="line"/>
      <point x="-45" y="699" type="line"/>
      <point x="54" y="699" type="line"/>
    </contour>
    <contour>
      <point x="-330" y="-386" type="line"/>
      <point x="-244" y="-386" type="line"/>
      <point x="-174" y="-55" type="line"/>
      <point x="-259" y="-55" type="line"/>
    </contour>
    <contour>
      <point x="-571" y="42" type="line"/>
      <point x="-289" y="42" type="line"/>
      <point x="-270" y="128" type="line"/>
      <point x="-552" y="128" type="line"/>
    </contour>
    <contour>
      <point x="-176" y="-386" type="line"/>
      <point x="-90" y="-386" type="line"/>
      <point x="-20" y="-55" type="line"/>
      <point x="-106" y="-55" type="line"/>
    </contour>
    <contour>
      <point x="-22" y="-386" type="line"/>
      <point x="65" y="-386" type="line"/>
      <point x="135" y="-55" type="line"/>
      <point x="48" y="-55" type="line"/>
    </contour>
    <contour>
      <point x="-532" y="227" type="line"/>
      <point x="-250" y="227" type="line"/>
      <point x="-230" y="313" type="line"/>
      <point x="-512" y="313" type="line"/>
    </contour>
    <contour>
      <point x="-492" y="412" type="line"/>
      <point x="-210" y="412" type="line"/>
      <point x="-191" y="498" type="line"/>
      <point x="-473" y="498" type="line"/>
    </contour>
    <contour>
      <point x="203" y="42" type="line"/>
      <point x="485" y="42" type="line"/>
      <point x="504" y="128" type="line"/>
      <point x="222" y="128" type="line"/>
    </contour>
    <contour>
      <point x="242" y="227" type="line"/>
      <point x="524" y="227" type="line"/>
      <point x="544" y="313" type="line"/>
      <point x="262" y="313" type="line"/>
    </contour>
    <contour>
      <point x="282" y="412" type="line"/>
      <point x="564" y="412" type="line"/>
      <point x="583" y="498" type="line"/>
      <point x="301" y="498" type="line"/>
    </contour>
  </outline>
</glyph>
<glyph name="uniA684" format="2">
  <advance width="1258"/>
  <unicode hex="A684"/>
  <anchor x="219" y="0" name="bottom_1"/>
  <anchor x="896" y="0" name="bottom_2"/>
  <anchor x="361" y="714" name="top_1"/>
  <anchor x="1059" y="714" name="top_2"/>
  <outline>
    <contour>
      <point x="352" y="291" type="line"/>
      <point x="792" y="291" type="line"/>
      <point x="827" y="449" type="line"/>
      <point x="386" y="449" type="line"/>
    </contour>
    <component base="afii10025"/>
    <component base="afii10028" xOffset="640"/>
  </outline>
</glyph>
<glyph name="uniA69A" format="2">
  <advance width="702"/>
  <unicode hex="A69A"/>
  <anchor x="310" y="0" name="bottom"/>
  <anchor x="462" y="714" name="top"/>
  <outline>
    <contour>
      <point x="240" y="29" type="line"/>
      <point x="348" y="29" type="line"/>
      <point x="482" y="661" type="line"/>
      <point x="374" y="661" type="line"/>
    </contour>
    <component base="uni04E8"/>
  </outline>
</glyph>
<glyph name="uniA69E" format="2">
  <unicode hex="A69E"/>
  <outline>
    <contour>
      <point x="-92" y="118" type="line"/>
      <point x="35" y="118" type="line"/>
      <point x="65" y="266" type="line"/>
      <point x="265" y="295"/>
      <point x="291" y="412"/>
      <point x="291" y="473" type="curve" smooth="yes"/>
      <point x="291" y="549"/>
      <point x="242" y="612"/>
      <point x="142" y="626" type="curve"/>
      <point x="169" y="758" type="line"/>
      <point x="45" y="758" type="line"/>
      <point x="17" y="627" type="line"/>
      <point x="-120" y="618"/>
      <point x="-212" y="537"/>
      <point x="-212" y="426" type="curve" smooth="yes"/>
      <point x="-212" y="347"/>
      <point x="-159" y="283"/>
      <point x="-58" y="272" type="curve"/>
    </contour>
    <contour>
      <point x="-40" y="368" type="line"/>
      <point x="-73" y="374"/>
      <point x="-83" y="401"/>
      <point x="-83" y="427" type="curve" smooth="yes"/>
      <point x="-83" y="450"/>
      <point x="-71" y="526"/>
      <point x="-3" y="531" type="curve"/>
    </contour>
    <contour>
      <point x="85" y="368" type="curve"/>
      <point x="121" y="530" type="line"/>
      <point x="151" y="521"/>
      <point x="162" y="494"/>
      <point x="162" y="475" type="curve" smooth="yes"/>
      <point x="162" y="450"/>
      <point x="152" y="384"/>
    </contour>
  </outline>
</glyph>
<glyph name="uniA730" format="2">
  <advance width="493"/>
  <unicode hex="A730"/>
  <outline>
    <contour>
      <point x="13" y="0" type="line"/>
      <point x="172" y="0" type="line"/>
      <point x="216" y="204" type="line"/>
      <point x="390" y="204" type="line"/>
      <point x="417" y="332" type="line"/>
      <point x="245" y="332" type="line"/>
      <point x="263" y="426" type="line"/>
      <point x="452" y="426" type="line"/>
      <point x="478" y="553" type="line"/>
      <point x="130" y="553" type="line"/>
    </contour>
  </outline>
</glyph>
<glyph name="uniA73B" format="2">
  <advance width="871"/>
  <unicode hex="A73B"/>
  <anchor x="300" y="0" name="bottom"/>
  <anchor x="418" y="553" name="top"/>
  <outline>
    <contour>
      <point x="430" y="296" type="line"/>
      <point x="662" y="296" type="line"/>
      <point x="683" y="394" type="line"/>
      <point x="451" y="394" type="line"/>
    </contour>
    <component base="uniA739"/>
  </outline>
</glyph>
<glyph name="uniA741" format="2">
  <advance width="617"/>
  <unicode hex="A741"/>
  <anchor x="262" y="0" name="bottom"/>
  <anchor x="261" y="760" name="top"/>
  <anchor x="717" y="760" name="topright"/>
  <outline>
    <contour>
      <point x="64" y="572" type="line"/>
      <point x="407" y="572" type="line"/>
      <point x="431" y="687" type="line"/>
      <point x="88" y="687" type="line"/>
    </contour>
    <component base="k"/>
  </outline>
</glyph>
<glyph name="uniA749" format="2">
  <advance width="325"/>
  <unicode hex="A749"/>
  <anchor x="99" y="0" name="bottom"/>
  <anchor x="158" y="277" name="center"/>
  <anchor x="261" y="760" name="top"/>
  <anchor x="398" y="760" name="topright"/>
  <outline>
    <contour>
      <point x="61" y="565" type="line"/>
      <point x="388" y="565" type="line"/>
      <point x="413" y="681" type="line"/>
      <point x="86" y="681" type="line"/>
    </contour>
    <component base="l"/>
  </outline>
</glyph>
<glyph name="uniA768" format="2">
  <advance width="793"/>
  <unicode hex="A768"/>
  <outline>
    <contour>
      <point x="-88" y="-240" type="line"/>
      <point x="269" y="-240" type="line"/>
      <point x="293" y="-131" type="line"/>
      <point x="218" y="-92" type="line"/>
      <point x="233" y="-9" type="line"/>
      <point x="867" y="714" type="line"/>
      <point x="623" y="714" type="line"/>
      <point x="364" y="382" type="line" smooth="yes"/>
      <point x="341" y="352"/>
      <point x="309" y="282"/>
      <point x="290" y="243" type="curve"/>
      <point x="282" y="246" type="line"/>
      <point x="291" y="279"/>
      <point x="307" y="324"/>
      <point x="314" y="359" type="curve" smooth="yes"/>
      <point x="356" y="562" type="line"/>
      <point x="451" y="604" type="line"/>
      <point x="475" y="714" type="line"/>
      <point x="115" y="714" type="line"/>
      <point x="90" y="604" type="line"/>
      <point x="165" y="562" type="line"/>
      <point x="27" y="-92" type="line"/>
      <point x="-64" y="-131" type="line"/>
    </contour>
  </outline>
</glyph>
<glyph name="uniA771" format="2">
  <advance width="795"/>
  <unicode hex="A771"/>
  <anchor x="216" y="0" name="bottom"/>
  <anchor x="289" y="277" name="center"/>
  <anchor x="384" y="760" name="top"/>
  <anchor x="650" y="760" name="topright"/>
  <outline>
    <contour>
      <point x="412" y="-157" type="line"/>
      <point x="522" y="-157" type="line"/>
      <point x="739" y="294" type="line"/>
      <point x="631" y="294" type="line"/>
    </contour>
    <contour>
      <point x="435" y="0" type="line"/>
      <point x="734" y="0" type="line"/>
      <point x="766" y="139" type="line"/>
      <point x="467" y="139" type="line"/>
    </contour>
    <component base="d"/>
  </outline>
</glyph>
<glyph name="uniA773" format="2">
  <advance width="1116"/>
  <unicode hex="A773"/>
  <anchor x="383" y="0" name="bottom"/>
  <anchor x="501" y="553" name="top"/>
  <anchor x="923" y="553" name="topright"/>
  <outline>
    <contour>
      <point x="733" y="-157" type="line"/>
      <point x="843" y="-157" type="line"/>
      <point x="1060" y="294" type="line"/>
      <point x="952" y="294" type="line"/>
    </contour>
    <contour>
      <point x="756" y="0" type="line"/>
      <point x="1055" y="0" type="line"/>
      <point x="1087" y="139" type="line"/>
      <point x="788" y="139" type="line"/>
    </contour>
    <component base="m"/>
  </outline>
</glyph>
<glyph name="uniA774" format="2">
  <advance width="816"/>
  <unicode hex="A774"/>
  <anchor x="239" y="0" name="bottom"/>
  <anchor x="357" y="553" name="top"/>
  <anchor x="634" y="553" name="topright"/>
  <outline>
    <contour>
      <point x="433" y="-157" type="line"/>
      <point x="543" y="-157" type="line"/>
      <point x="760" y="294" type="line"/>
      <point x="652" y="294" type="line"/>
    </contour>
    <contour>
      <point x="456" y="0" type="line"/>
      <point x="755" y="0" type="line"/>
      <point x="787" y="139" type="line"/>
      <point x="488" y="139" type="line"/>
    </contour>
    <component base="n"/>
  </outline>
</glyph>
<glyph name="uniA781" format="2">
  <advance width="316"/>
  <unicode hex="A781"/>
  <outline>
    <contour>
      <point x="-43" y="-240" type="line"/>
      <point x="146" y="-240" type="line"/>
      <point x="316" y="554" type="line"/>
      <point x="126" y="554" type="line"/>
    </contour>
  </outline>
</glyph>
<glyph name="uniA7AE" format="2">
  <advance width="326"/>
  <unicode hex="A7AE"/>
  <outline>
    <contour>
      <point x="-37" y="0" type="line"/>
      <point x="233" y="0" type="line"/>
      <point x="252" y="84" type="line"/>
      <point x="193" y="114" type="line"/>
      <point x="260" y="435" type="line"/>
      <point x="333" y="467" type="line"/>
      <point x="352" y="553" type="line"/>
      <point x="79" y="553" type="line"/>
      <point x="62" y="467" type="line"/>
      <point x="119" y="435" type="line"/>
      <point x="52" y="114" type="line"/>
      <point x="-18" y="84" type="line"/>
    </contour>
  </outline>
</glyph>
<glyph name="uniA7CA" format="2">
  <advance width="484"/>
  <unicode hex="A7CA"/>
  <anchor x="183" y="0" name="bottom"/>
  <anchor x="301" y="553" name="top"/>
  <anchor x="503" y="553" name="topright"/>
  <outline>
    <contour>
      <point x="9" y="225" type="line"/>
      <point x="471" y="225" type="line"/>
      <point x="489" y="310" type="line"/>
      <point x="27" y="310" type="line"/>
    </contour>
    <component base="s"/>
  </outline>
</glyph>
<glyph name="uniAB41" format="2">
  <advance width="880"/>
  <unicode hex="AB41"/>
  <anchor x="519" y="553" name="bottom"/>
  <anchor x="400" y="0" name="top"/>
  <outline>
    <contour>
      <point x="448" y="-60" type="line"/>
      <point x="776" y="577" type="line"/>
      <point x="708" y="610" type="line"/>
      <point x="380" y="-27" type="line"/>
    </contour>
    <component base="oe" xScale="-1" yScale="-1" xOffset="880" yOffset="553"/>
  </outline>
</glyph>
<glyph name="uniAB44" format="2">
  <advance width="971"/>
  <unicode hex="AB44"/>
  <anchor x="621" y="0" name="bottom"/>
  <anchor x="680" y="277" name="center"/>
  <anchor x="739" y="553" name="top"/>
  <anchor x="1010" y="553" name="topright"/>
  <outline>
    <contour>
      <point x="509" y="-45" type="line"/>
      <point x="926" y="556" type="line"/>
      <point x="866" y="596" type="line"/>
      <point x="448" y="-6" type="line"/>
    </contour>
    <component base="uniAB43"/>
  </outline>
</glyph>
<glyph name="uniAB61" format="2">
  <advance width="840"/>
  <unicode hex="AB61"/>
  <anchor x="535" y="0" name="bottom"/>
  <anchor x="627" y="553" name="top"/>
  <anchor x="883" y="553" name="topright"/>
  <outline>
    <contour>
      <point x="10" y="0" type="line"/>
      <point x="199" y="0" type="line"/>
      <point x="245" y="215" type="line"/>
      <point x="354" y="215" type="line"/>
      <point x="383" y="353" type="line"/>
      <point x="275" y="353" type="line"/>
      <point x="317" y="553" type="line"/>
      <point x="128" y="553" type="line"/>
    </contour>
    <component base="e" xOffset="285"/>
  </outline>
</glyph>
<glyph name="uniFE20" format="2">
  <unicode hex="FE20"/>
  <outline>
    <contour>
      <point x="-318" y="587" type="curve"/>
      <point x="-201" y="587" type="line"/>
      <point x="-141" y="645"/>
      <point x="-26" y="674"/>
      <point x="90" y="674" type="curve"/>
      <point x="92" y="791" type="line"/>
      <point x="-86" y="790"/>
      <point x="-217" y="731"/>
    </contour>
  </outline>
</glyph>
<glyph name="uniFE21" format="2">
  <unicode hex="FE21"/>
  <outline>
    <contour>
      <point x="317" y="587" type="curve"/>
      <point x="430" y="587" type="line"/>
      <point x="386" y="734"/>
      <point x="285" y="791"/>
      <point x="84" y="791" type="curve"/>
      <point x="83" y="674" type="line"/>
      <point x="200" y="674"/>
      <point x="281" y="648"/>
    </contour>
  </outline>
</glyph>
<glyph name="uniFE22" format="2">
  <unicode hex="FE22"/>
  <outline>
    <contour>
      <point x="-289" y="612" type="curve"/>
      <point x="-202" y="612" type="line"/>
      <point x="-183" y="650"/>
      <point x="-152" y="660"/>
      <point x="-113" y="660" type="curve" smooth="yes"/>
      <point x="-64" y="660"/>
      <point x="4" y="649"/>
      <point x="84" y="629" type="curve"/>
      <point x="85" y="760" type="line"/>
      <point x="34" y="770"/>
      <point x="-26" y="782"/>
      <point x="-92" y="782" type="curve" smooth="yes"/>
      <point x="-200" y="782"/>
      <point x="-260" y="725"/>
    </contour>
  </outline>
</glyph>
<glyph name="uniFE23" format="2">
  <unicode hex="FE23"/>
  <outline>
    <contour>
      <point x="254" y="607" type="curve" smooth="yes"/>
      <point x="362" y="607"/>
      <point x="422" y="664"/>
      <point x="451" y="777" type="curve"/>
      <point x="365" y="777" type="line"/>
      <point x="345" y="739"/>
      <point x="314" y="729"/>
      <point x="275" y="729" type="curve" smooth="yes"/>
      <point x="227" y="729"/>
      <point x="159" y="740"/>
      <point x="78" y="760" type="curve"/>
      <point x="77" y="629" type="line"/>
      <point x="128" y="619"/>
      <point x="188" y="607"/>
    </contour>
  </outline>
</glyph>
<glyph name="combiningconjoiningmacron" format="2">
  <unicode hex="FE26"/>
  <outline>
    <contour>
      <point x="-242" y="606" type="line"/>
      <point x="388" y="606" type="line"/>
      <point x="413" y="721" type="line"/>
      <point x="-216" y="721" type="line"/>
    </contour>
  </outline>
</glyph>
<glyph name="uniFE2E" format="2">
  <unicode hex="FE2E"/>
  <outline>
    <contour>
      <point x="-21" y="560" type="curve" smooth="yes"/>
      <point x="26" y="560"/>
      <point x="45" y="575"/>
      <point x="57" y="606" type="curve"/>
      <point x="228" y="606" type="line"/>
      <point x="229" y="696" type="line"/>
      <point x="2" y="696" type="line" smooth="yes"/>
      <point x="-60" y="696"/>
      <point x="-82" y="653"/>
      <point x="-82" y="616" type="curve" smooth="yes"/>
      <point x="-82" y="588"/>
      <point x="-68" y="560"/>
    </contour>
  </outline>
</glyph>
<glyph name="uniFE2F" format="2">
  <unicode hex="FE2F"/>
  <outline>
    <contour>
      <point x="-67" y="606" type="line"/>
      <point x="161" y="606" type="line" smooth="yes"/>
      <point x="222" y="606"/>
      <point x="244" y="649"/>
      <point x="244" y="686" type="curve" smooth="yes"/>
      <point x="244" y="714"/>
      <point x="230" y="742"/>
      <point x="183" y="742" type="curve" smooth="yes"/>
      <point x="136" y="742"/>
      <point x="118" y="727"/>
      <point x="105" y="696" type="curve"/>
      <point x="-66" y="696" type="line"/>
    </contour>
  </outline>
</glyph>
<glyph name="uni0268dotless" format="2">
  <advance width="315"/>
  <anchor x="103" y="0" name="bottom"/>
  <anchor x="222" y="553" name="top"/>
  <outline>
    <contour>
      <point x="-19" y="220" type="line"/>
      <point x="316" y="220" type="line"/>
      <point x="342" y="332" type="line"/>
      <point x="7" y="332" type="line"/>
    </contour>
    <component base="idotless"/>
  </outline>
</glyph>
